<?xml version="1.0" encoding="UTF-8"?>
<svg id="Layer_2" data-name="Layer 2" xmlns="http://www.w3.org/2000/svg" xmlns:xlink="http://www.w3.org/1999/xlink" viewBox="0 0 1489.13 503.23">
  <defs>
    <style>
      .cls-1 {
        fill: url(#linear-gradient);
        fill-rule: evenodd;
      }

      .cls-2 {
        fill: #004aad;
      }

      .cls-3 {
        fill: #19d0ef;
      }
    </style>
    <linearGradient id="linear-gradient" x1="0" y1="252.83" x2="622.26" y2="252.83" gradientTransform="translate(0 504.45) scale(1 -1)" gradientUnits="userSpaceOnUse">
      <stop offset="0" stop-color="#19d0ef"/>
      <stop offset="1" stop-color="#004aad"/>
    </linearGradient>
  </defs>
  <g id="Layer_1-2" data-name="Layer 1">
    <g>
      <g>
        <path class="cls-1" d="m174.11,48.81h133.82c28.55,0,53.08-6.54,77.76-20.82L431.34,1.67c3.87-2.23,8.18-2.23,11.9,0,3.87,2.23,5.95,5.95,5.95,10.26v36.87h92.93c21.86,0,39.85,17.99,39.85,39.85v120.88h29.29c5.95,0,11,4.91,11,11v62c0,5.95-5.06,11-11,11h-29.29v26.76c0,36.87-15.02,70.33-39.4,94.57-24.24,24.24-57.69,39.4-94.57,39.4h-133.82c-28.55,0-53.08,6.54-77.76,20.82l-45.65,26.47c-3.87,2.23-8.18,2.23-11.9,0-3.87-2.23-5.95-5.95-5.95-10.26v-37.17h-92.93c-21.86,0-39.85-17.99-39.85-39.85v-120.88H11c-5.95,0-11-5.06-11-11v-62c0-5.95,5.06-11,11-11h29.29v-26.76c0-36.87,15.02-70.33,39.4-94.57,24.09-24.09,57.69-39.25,94.42-39.25Zm358.19,202.66V98.77h-35.24c-26.47,0-47.73-21.56-47.73-47.73v-1.93l-34.94,20.22c-35.24,20.22-69.88,29.59-110.62,29.59h-129.51c-23.2,0-44.01,9.52-59.33,24.83-15.31,15.31-24.68,36.28-24.68,59.33v221.4h35.24c26.47,0,47.73,21.56,47.73,47.73v2.08l34.94-20.22c35.24-20.22,69.88-29.59,110.62-29.59h129.51c23.2,0,44.01-9.52,59.33-24.68,15.31-15.31,24.68-36.28,24.68-59.33v-68.99h0Z"/>
        <path class="cls-3" d="m354.03,320.91c-10.56,0-20.22-6.24-24.68-16.06-10.71-23.94-34.64-39.25-60.81-39.25s-49.96,15.31-60.81,39.25c-4.31,9.66-14.13,16.06-24.68,16.06-14.87,0-26.91-12.04-26.91-26.91,0-13.23,9.81-24.68,22.75-26.62,30.63-4.76,53.97-29.74,56.35-60.66,1.19-13.83,12.94-24.83,26.91-24.83s25.57,10.71,26.91,24.38c3.12,33.9,31.37,60.07,65.42,60.66h4.46c34.35,0,63.34-26.17,66.31-60.66,1.19-13.68,13.08-24.53,26.91-24.53,14.87,0,26.91,12.04,26.91,26.91s-12.04,26.91-26.91,26.91h-4.76c-34.35,0-63.34,26.17-66.31,60.66-1.49,13.98-13.38,24.68-27.06,24.68h0Z"/>
      </g>
      <g>
        <g>
          <path class="cls-2" d="m874.24,204.4c9.44,3.31,16.84,8.44,22.17,15.41,5.33,6.99,7.99,15.41,7.99,25.31,0,14.46-5.8,25.64-17.41,33.49-11.61,7.8-28.42,11.7-50.43,11.7h-88.96V125.53h84.3c20.98,0,36.96,3.9,47.95,11.7,11.04,7.75,16.56,18.22,16.56,31.4,0,7.87-1.95,14.91-5.8,21.12-3.81,6.16-9.28,11.04-16.36,14.65Zm-80.49-45.19v31.78h32.06c15.65,0,23.5-5.33,23.5-15.98s-7.85-15.79-23.5-15.79h-32.06Zm39.1,97.43c16.29,0,24.45-5.54,24.45-16.65s-8.16-16.75-24.45-16.75h-39.1v33.4h39.1Z"/>
          <path class="cls-2" d="m952.16,125.53h46.62v127.87h78.59v36.92h-125.21V125.53Z"/>
          <path class="cls-2" d="m1119.3,125.53h77.92c18.08,0,34.09,3.4,48.05,10.18,13.94,6.73,24.76,16.32,32.44,28.73,7.66,12.37,11.51,26.88,11.51,43.48s-3.85,31.16-11.51,43.58c-7.68,12.37-18.51,21.95-32.44,28.73-13.96,6.73-29.97,10.09-48.05,10.09h-77.92V125.53Zm76.02,127.59c14.13,0,25.5-4,34.06-11.99,8.56-7.99,12.84-19.05,12.84-33.21s-4.28-25.21-12.84-33.21c-8.56-7.99-19.93-11.99-34.06-11.99h-29.4v90.39h29.4Z"/>
          <path class="cls-2" d="m1409.3,246.55h-25.4v43.77h-46.62V125.53h75.35c14.89,0,27.83,2.47,38.82,7.42,10.97,4.95,19.43,12.04,25.4,21.22,5.95,9.21,8.94,19.98,8.94,32.35s-2.81,22.34-8.37,31.21c-5.52,8.9-13.49,15.84-23.88,20.84l35.58,51.76h-49.95l-29.88-43.77Zm29.4-60.04c0-7.66-2.45-13.63-7.33-17.89-4.83-4.23-12.04-6.37-21.6-6.37h-25.88v48.24h25.88c9.56,0,16.77-2.05,21.6-6.18,4.88-4.19,7.33-10.11,7.33-17.79Z"/>
        </g>
        <g>
          <path class="cls-2" d="m774.72,377.33l-3.12-8.6h-15.02l-3.12,8.6h-5.86l12.76-35.53h7.65l12.76,35.53h-6.05Zm-10.49-29.67h-.28l-5.67,15.87h11.62l-5.67-15.87Z"/>
          <path class="cls-2" d="m805.51,377.33l-12.09-35.53h6.05l9.83,28.82h.28l9.83-28.82h5.86l-12.09,35.53h-7.65Z"/>
          <path class="cls-2" d="m865.08,377.33l-3.12-8.6h-15.02l-3.12,8.6h-5.86l12.76-35.53h7.65l12.76,35.53h-6.05Zm-10.49-29.67h-.28l-5.67,15.87h11.62l-5.67-15.87Z"/>
          <path class="cls-2" d="m894.64,377.33v-30.14h-10.77v-5.39h27.4v5.39h-10.77v30.14h-5.86Z"/>
          <path class="cls-2" d="m951.15,377.33l-3.12-8.6h-15.02l-3.12,8.6h-5.86l12.76-35.53h7.65l12.76,35.53h-6.05Zm-10.49-29.67h-.28l-5.67,15.87h11.62l-5.67-15.87Z"/>
          <path class="cls-2" d="m994.7,377.33l-5.29-13.42h-10.2v13.42h-5.86v-35.53h16.63c2.88,0,5.05.45,6.52,1.32,1.51.9,2.5,2.13,3.02,3.68.5,1.51.76,3.54.76,6.05,0,2.34-.35,4.44-1.04,6.33-.71,1.89-2.08,3.21-4.16,3.97l5.76,14.17h-6.14Zm-7.18-18.61c2.13,0,3.68-.19,4.63-.57.99-.38,1.63-.94,1.89-1.7.24-.8.38-2.01.38-3.59,0-1.7-.14-2.93-.38-3.68-.26-.76-.85-1.28-1.8-1.61-.9-.38-2.41-.57-4.54-.57h-8.5v11.72h8.31Z"/>
          <path class="cls-2" d="m1031,377.7c-1.96,0-4.13-.07-6.52-.19-2.41-.14-4.49-.31-6.24-.57v-5.1c4.2.45,7.89.66,11.05.66,1.82,0,3.24-.05,4.25-.19,1.06-.19,1.89-.47,2.46-.85s.94-.87,1.13-1.51c.19-.61.28-1.54.28-2.74s-.09-2.17-.28-2.74c-.14-.61-.45-1.06-.94-1.32-.52-.24-1.37-.43-2.55-.57l-8.41-.94c-2.22-.24-3.92-.78-5.1-1.61-1.13-.8-1.94-1.89-2.36-3.21-.38-1.32-.57-3.02-.57-5.1,0-2.95.5-5.15,1.51-6.61,1.06-1.51,2.5-2.5,4.35-3.02,1.82-.5,4.2-.76,7.18-.76,1.94,0,3.97.09,6.05.28,2.13.19,3.87.45,5.2.76v4.91c-1.28-.19-2.88-.33-4.82-.47-1.89-.12-3.66-.19-5.29-.19-1.84,0-3.28.07-4.35.19-1.09.14-1.94.38-2.55.76-.57.33-.94.76-1.13,1.32s-.28,1.42-.28,2.55c0,1.28.09,2.17.28,2.74.19.52.52.9,1.04,1.13.57.19,1.44.35,2.65.47l8.5,1.04c1.75.19,3.17.57,4.25,1.13,1.13.52,1.98,1.39,2.55,2.65.61,1.39.94,3.5.94,6.33,0,3.17-.52,5.53-1.51,7.09-1.02,1.58-2.36,2.6-4.06,3.02-1.7.43-3.94.66-6.71.66Z"/>
          <path class="cls-2" d="m1115.86,356.92v4.91h-5.86v14.83c-1.51.33-3.38.57-5.57.76-2.22.19-4.25.28-6.14.28-4.3,0-7.56-.4-9.83-1.23-2.27-.8-3.83-1.91-4.63-3.31-.76-1.44-1.13-3.24-1.13-5.39,0-1.89.24-3.35.76-4.44.5-1.13,1.18-1.98,2.08-2.55.94-.61,2.17-1.13,3.68-1.51v-.19c-2.15-.5-3.73-1.37-4.72-2.65-.94-1.32-1.42-3.24-1.42-5.76,0-2.88,1.06-5.15,3.21-6.8,2.2-1.7,6.19-2.55,12-2.55,1.63,0,3.52.14,5.67.38,2.2.19,4.16.45,5.86.76v4.54c-1.58-.19-3.35-.33-5.29-.47-1.89-.12-3.54-.19-4.91-.19-3.28,0-5.67.17-7.18.47-1.51.33-2.53.85-3.02,1.61-.52.71-.76,1.8-.76,3.31,0,1.13.12,2.08.38,2.83.31.71.94,1.28,1.89,1.7.94.45,2.36.66,4.25.66h4.35v4.91h-4.35c-2.03,0-3.54.19-4.54.57-.94.33-1.58.85-1.89,1.61-.26.76-.38,1.87-.38,3.31,0,1.51.31,2.69.94,3.5.61.83,1.63,1.37,3.02,1.61,1.44.26,3.42.38,5.95.38,1.94,0,4.06-.05,6.33-.19v-15.68h11.24Z"/>
          <path class="cls-2" d="m1177.66,376.95c-1.13.26-2.53.43-4.16.57-1.65.12-3.17.19-4.54.19-4.35,0-7.53-.47-9.54-1.42-2.03-.99-3.38-2.74-4.06-5.2-.71-2.5-1.04-6.35-1.04-11.53s.33-8.98,1.04-11.43c.68-2.5,2.03-4.28,4.06-5.29,2.01-.99,5.2-1.51,9.54-1.51,1.44,0,2.95.09,4.54.28,1.56.19,2.88.43,3.97.66v4.91c-2.79-.38-5.15-.57-7.09-.57-3.4,0-5.76.26-7.09.76-1.28.52-2.13,1.61-2.55,3.31-.38,1.65-.57,4.61-.57,8.88s.19,7.25.57,8.88c.43,1.65,1.28,2.74,2.55,3.31,1.32.52,3.68.76,7.09.76,2.69,0,5.13-.19,7.28-.57v5.01Z"/>
          <path class="cls-2" d="m1217.84,377.33v-15.21h-16.53v15.21h-5.86v-35.53h5.86v14.93h16.53v-14.93h5.76v35.53h-5.76Z"/>
          <path class="cls-2" d="m1266.96,377.33l-3.12-8.6h-15.02l-3.12,8.6h-5.86l12.76-35.53h7.65l12.76,35.53h-6.05Zm-10.49-29.67h-.28l-5.67,15.87h11.62l-5.67-15.87Z"/>
          <path class="cls-2" d="m1296.53,377.33v-30.14h-10.77v-5.39h27.4v5.39h-10.77v30.14h-5.86Z"/>
          <path class="cls-2" d="m1329.51,341.8h16.91c3.45,0,5.95.76,7.46,2.27,1.56,1.46,2.36,3.66,2.36,6.61,0,2.46-.52,4.39-1.51,5.76-1.02,1.32-2.55,2.22-4.63,2.65v.19c2.39.52,4.06,1.46,5.01,2.83.94,1.39,1.42,3.31,1.42,5.76,0,3.02-.76,5.36-2.27,6.99-1.46,1.65-4.06,2.46-7.84,2.46h-16.91v-35.53Zm14.93,14.93c2.13,0,3.64-.38,4.54-1.13.94-.76,1.42-1.98,1.42-3.68,0-1.32-.19-2.31-.57-3.02-.33-.68-.9-1.16-1.7-1.42-.83-.31-2.05-.47-3.68-.47h-9.07v9.73h9.07Zm.28,15.4c1.56,0,2.76-.14,3.59-.47.87-.31,1.51-.8,1.89-1.51.38-.76.57-1.8.57-3.12,0-1.89-.45-3.17-1.32-3.87-.9-.76-2.46-1.13-4.72-1.13h-9.35v10.11h9.35Z"/>
          <path class="cls-2" d="m1388.67,377.7c-4.79,0-8.2-.47-10.2-1.42-2.03-.99-3.31-2.67-3.87-5.01-.52-2.31-.76-6.24-.76-11.72s.24-9.38.76-11.72c.57-2.39,1.84-4.06,3.87-5.01,2.01-.99,5.41-1.51,10.2-1.51s8.08.52,10.11,1.51c2.08.94,3.35,2.62,3.87,5.01.57,2.34.85,6.24.85,11.72s-.28,9.33-.85,11.72c-.52,2.34-1.8,4.02-3.87,5.01-2.03.94-5.39,1.42-10.11,1.42Zm0-5.2c3.14,0,5.24-.21,6.33-.66,1.13-.43,1.84-1.44,2.17-3.02.31-1.63.47-4.72.47-9.26s-.17-7.61-.47-9.26c-.33-1.63-1.04-2.65-2.17-3.02-1.09-.43-3.19-.66-6.33-.66s-5.36.24-6.42.66c-1.09.38-1.77,1.39-2.08,3.02-.33,1.65-.47,4.72-.47,9.26s.14,7.63.47,9.26c.31,1.58.99,2.6,2.08,3.02,1.06.45,3.21.66,6.42.66Z"/>
          <path class="cls-2" d="m1429.51,377.33v-30.14h-10.77v-5.39h27.4v5.39h-10.77v30.14h-5.86Z"/>
          <path class="cls-2" d="m1474.68,377.7c-1.96,0-4.13-.07-6.52-.19-2.41-.14-4.49-.31-6.24-.57v-5.1c4.2.45,7.89.66,11.05.66,1.82,0,3.24-.05,4.25-.19,1.06-.19,1.89-.47,2.46-.85s.94-.87,1.13-1.51c.19-.61.28-1.54.28-2.74s-.09-2.17-.28-2.74c-.14-.61-.45-1.06-.94-1.32-.52-.24-1.37-.43-2.55-.57l-8.41-.94c-2.22-.24-3.92-.78-5.1-1.61-1.13-.8-1.94-1.89-2.36-3.21-.38-1.32-.57-3.02-.57-5.1,0-2.95.5-5.15,1.51-6.61,1.06-1.51,2.5-2.5,4.35-3.02,1.82-.5,4.2-.76,7.18-.76,1.94,0,3.97.09,6.05.28,2.13.19,3.87.45,5.2.76v4.91c-1.28-.19-2.88-.33-4.82-.47-1.89-.12-3.66-.19-5.29-.19-1.84,0-3.28.07-4.35.19-1.09.14-1.94.38-2.55.76-.57.33-.94.76-1.13,1.32s-.28,1.42-.28,2.55c0,1.28.09,2.17.28,2.74.19.52.52.9,1.04,1.13.57.19,1.44.35,2.65.47l8.5,1.04c1.75.19,3.17.57,4.25,1.13,1.13.52,1.98,1.39,2.55,2.65.61,1.39.94,3.5.94,6.33,0,3.17-.52,5.53-1.51,7.09-1.02,1.58-2.36,2.6-4.06,3.02-1.7.43-3.94.66-6.71.66Z"/>
        </g>
      </g>
    </g>
  </g>
</svg>